HIERARCHY
ROOT Hips
{
  OFFSET 5.72205e-005 65.662 3.42586
  CHANNELS 6 Xposition Yposition Zposition Zrotation Xrotation Yrotation
  JOINT Chest
  {
    OFFSET 0 8.7983 -4.7612
    CHANNELS 6 Xposition Yposition Zposition Zrotation Xrotation Yrotation
    JOINT Chest2
    {
      OFFSET 0 8.0291 0.4195
      CHANNELS 6 Xposition Yposition Zposition Zrotation Xrotation Yrotation
      JOINT Chest3
      {
        OFFSET 0 9.9351 -2.2114
        CHANNELS 6 Xposition Yposition Zposition Zrotation Xrotation Yrotation
        JOINT Neck
        {
          OFFSET 0 22.3885 -0.4656
          CHANNELS 6 Xposition Yposition Zposition Zrotation Xrotation Yrotation
          JOINT Head
          {
            OFFSET -0.0001 12.643 3.4389
            CHANNELS 6 Xposition Yposition Zposition Zrotation Xrotation Yrotation
            End Site
            {
              OFFSET 0.0001 17.6655 0.5274
            }
          }
        }
        JOINT LeftCollar
        {
          OFFSET 2.2603 21.606 7.4023
          CHANNELS 6 Xposition Yposition Zposition Zrotation Xrotation Yrotation
          JOINT LeftShoulder
          {
            OFFSET 13.5163 -1.1332 -5.0146
            CHANNELS 6 Xposition Yposition Zposition Zrotation Xrotation Yrotation
            JOINT LeftElbow
            {
              OFFSET -0.0995 -28.05 -0.2431
              CHANNELS 6 Xposition Yposition Zposition Zrotation Xrotation Yrotation
              JOINT LeftWrist
              {
                OFFSET 0.0679 -23.3996 -0.1402
                CHANNELS 6 Xposition Yposition Zposition Zrotation Xrotation Yrotation
                JOINT LeftFinger1
                {
                  OFFSET 0.7932 -9.069 2.5189
                  CHANNELS 6 Xposition Yposition Zposition Zrotation Xrotation Yrotation
                  JOINT LeftFinger11
                  {
                    OFFSET -0.8272 -3.3923 0.5977
                    CHANNELS 6 Xposition Yposition Zposition Zrotation Xrotation Yrotation
                    JOINT LeftFinger12
                    {
                      OFFSET -0.5649 -2.3158 0.4082
                      CHANNELS 6 Xposition Yposition Zposition Zrotation Xrotation Yrotation
                      End Site
                      {
                        OFFSET -0.4919 -1.6479 0.2673
                      }
                    }
                  }
                }
                JOINT LeftFinger2
                {
                  OFFSET 0.9159 -9.2044 0.2193
                  CHANNELS 6 Xposition Yposition Zposition Zrotation Xrotation Yrotation
                  JOINT LeftFinger21
                  {
                    OFFSET 0.0117 -4.1944 -0.0248
                    CHANNELS 6 Xposition Yposition Zposition Zrotation Xrotation Yrotation
                    JOINT LeftFinger22
                    {
                      OFFSET 0.0071 -2.3249 -0.0142
                      CHANNELS 6 Xposition Yposition Zposition Zrotation Xrotation Yrotation
                      End Site
                      {
                        OFFSET -0.1475 -2.0882 0.0028
                      }
                    }
                  }
                }
                JOINT LeftFinger3
                {
                  OFFSET 0.6113 -8.7231 -2.0637
                  CHANNELS 6 Xposition Yposition Zposition Zrotation Xrotation Yrotation
                  JOINT LeftFinger31
                  {
                    OFFSET -0.1927 -3.8059 -0.2383
                    CHANNELS 6 Xposition Yposition Zposition Zrotation Xrotation Yrotation
                    JOINT LeftFinger32
                    {
                      OFFSET -0.1091 -2.1688 -0.1362
                      CHANNELS 6 Xposition Yposition Zposition Zrotation Xrotation Yrotation
                      End Site
                      {
                        OFFSET -0.2358 -1.9176 -0.0906
                      }
                    }
                  }
                }
                JOINT LeftFinger4
                {
                  OFFSET -0.6151 -8.0947 -3.5641
                  CHANNELS 6 Xposition Yposition Zposition Zrotation Xrotation Yrotation
                  JOINT LeftFinger41
                  {
                    OFFSET -0.4882 -2.341 -0.6462
                    CHANNELS 6 Xposition Yposition Zposition Zrotation Xrotation Yrotation
                    JOINT LeftFinger42
                    {
                      OFFSET -0.3575 -1.7167 -0.4742
                      CHANNELS 6 Xposition Yposition Zposition Zrotation Xrotation Yrotation
                      End Site
                      {
                        OFFSET -0.4187 -1.5237 -0.3496
                      }
                    }
                  }
                }
                JOINT LeftFinger0
                {
                  OFFSET -1.42 -1.8761 1.4223
                  CHANNELS 6 Xposition Yposition Zposition Zrotation Xrotation Yrotation
                  JOINT LeftFinger01
                  {
                    OFFSET -1.1471 -3.4929 2.6334
                    CHANNELS 6 Xposition Yposition Zposition Zrotation Xrotation Yrotation
                    JOINT LeftFinger02
                    {
                      OFFSET -0.823 -2.3 1.6571
                      CHANNELS 6 Xposition Yposition Zposition Zrotation Xrotation Yrotation
                      End Site
                      {
                        OFFSET -0.5822 -1.6914 1.1582
                      }
                    }
                  }
                }
              }
            }
          }
        }
        JOINT RightCollar
        {
          OFFSET -2.2603 21.606 7.4023
          CHANNELS 6 Xposition Yposition Zposition Zrotation Xrotation Yrotation
          JOINT RightShoulder
          {
            OFFSET -13.5187 -1.1334 -5.0155
            CHANNELS 6 Xposition Yposition Zposition Zrotation Xrotation Yrotation
            JOINT RightElbow
            {
              OFFSET 0.0994 -28.0499 -0.2431
              CHANNELS 6 Xposition Yposition Zposition Zrotation Xrotation Yrotation
              JOINT RightWrist
              {
                OFFSET -0.0679 -23.3996 -0.1402
                CHANNELS 6 Xposition Yposition Zposition Zrotation Xrotation Yrotation
                JOINT RightFinger1
                {
                  OFFSET -0.7932 -9.0691 2.5189
                  CHANNELS 6 Xposition Yposition Zposition Zrotation Xrotation Yrotation
                  JOINT RightFinger11
                  {
                    OFFSET 0.8272 -3.3923 0.5977
                    CHANNELS 6 Xposition Yposition Zposition Zrotation Xrotation Yrotation
                    JOINT RightFinger12
                    {
                      OFFSET 0.565 -2.3158 0.4082
                      CHANNELS 6 Xposition Yposition Zposition Zrotation Xrotation Yrotation
                      End Site
                      {
                        OFFSET 0.4919 -1.6479 0.2673
                      }
                    }
                  }
                }
                JOINT RightFinger2
                {
                  OFFSET -0.916 -9.2044 0.2193
                  CHANNELS 6 Xposition Yposition Zposition Zrotation Xrotation Yrotation
                  JOINT RightFinger21
                  {
                    OFFSET -0.0117 -4.1944 -0.0248
                    CHANNELS 6 Xposition Yposition Zposition Zrotation Xrotation Yrotation
                    JOINT RightFinger22
                    {
                      OFFSET -0.0071 -2.3249 -0.0142
                      CHANNELS 6 Xposition Yposition Zposition Zrotation Xrotation Yrotation
                      End Site
                      {
                        OFFSET 0.1475 -2.0882 0.0028
                      }
                    }
                  }
                }
                JOINT RightFinger3
                {
                  OFFSET -0.6113 -8.7231 -2.0637
                  CHANNELS 6 Xposition Yposition Zposition Zrotation Xrotation Yrotation
                  JOINT RightFinger31
                  {
                    OFFSET 0.1927 -3.8059 -0.2383
                    CHANNELS 6 Xposition Yposition Zposition Zrotation Xrotation Yrotation
                    JOINT RightFinger32
                    {
                      OFFSET 0.1091 -2.1688 -0.1362
                      CHANNELS 6 Xposition Yposition Zposition Zrotation Xrotation Yrotation
                      End Site
                      {
                        OFFSET 0.2358 -1.9176 -0.0906
                      }
                    }
                  }
                }
                JOINT RightFinger4
                {
                  OFFSET 0.6151 -8.0947 -3.564
                  CHANNELS 6 Xposition Yposition Zposition Zrotation Xrotation Yrotation
                  JOINT RightFinger41
                  {
                    OFFSET 0.4882 -2.341 -0.6462
                    CHANNELS 6 Xposition Yposition Zposition Zrotation Xrotation Yrotation
                    JOINT RightFinger42
                    {
                      OFFSET 0.3574 -1.7166 -0.4742
                      CHANNELS 6 Xposition Yposition Zposition Zrotation Xrotation Yrotation
                      End Site
                      {
                        OFFSET 0.4187 -1.5237 -0.3496
                      }
                    }
                  }
                }
                JOINT RightFinger0
                {
                  OFFSET 1.4199 -1.8761 1.4221
                  CHANNELS 6 Xposition Yposition Zposition Zrotation Xrotation Yrotation
                  JOINT RightFinger01
                  {
                    OFFSET 1.1472 -3.4929 2.6336
                    CHANNELS 6 Xposition Yposition Zposition Zrotation Xrotation Yrotation
                    JOINT RightFinger02
                    {
                      OFFSET 0.8229 -2.3 1.6571
                      CHANNELS 6 Xposition Yposition Zposition Zrotation Xrotation Yrotation
                      End Site
                      {
                        OFFSET 0.5822 -1.6914 1.1582
                      }
                    }
                  }
                }
              }
            }
          }
        }
      }
    }
  }
  JOINT RightHip
  {
    OFFSET -9.412 3.9771 -0.7758
    CHANNELS 6 Xposition Yposition Zposition Zrotation Xrotation Yrotation
    JOINT RightKnee
    {
      OFFSET -0.7531 -40.938 0
      CHANNELS 6 Xposition Yposition Zposition Zrotation Xrotation Yrotation
      JOINT RightAnkle
      {
        OFFSET 0 -40.1986 0
        CHANNELS 6 Xposition Yposition Zposition Zrotation Xrotation Yrotation
        JOINT RightToe
        {
          OFFSET 0 -4.4182 9.239
          CHANNELS 6 Xposition Yposition Zposition Zrotation Xrotation Yrotation
          End Site
          {
            OFFSET 0 0 6.1981
          }
        }
      }
    }
  }
  JOINT LeftHip
  {
    OFFSET 9.4119 3.9773 -0.7758
    CHANNELS 6 Xposition Yposition Zposition Zrotation Xrotation Yrotation
    JOINT LeftKnee
    {
      OFFSET 0.7532 -40.9383 0
      CHANNELS 6 Xposition Yposition Zposition Zrotation Xrotation Yrotation
      JOINT LeftAnkle
      {
        OFFSET 0 -40.1986 0
        CHANNELS 6 Xposition Yposition Zposition Zrotation Xrotation Yrotation
        JOINT LeftToe
        {
          OFFSET 0 -4.4182 9.239
          CHANNELS 6 Xposition Yposition Zposition Zrotation Xrotation Yrotation
          End Site
          {
            OFFSET 0 0 6.1981
          }
        }
      }
    }
  }
}
MOTION
Frames:	4
Frame Time:	0.0333333
5.72205e-005 65.662 3.42586 0 0 -0 0 8.7983 -4.7612 0 0 -0 0 8.0291 0.4195 0 0 -0 0 9.9351 -2.2114 0 0 -0 0 22.3885 -0.4656 0 0 -0 -0.0001 12.643 3.4389 0 0 -0 2.2603 21.606 7.4023 0 0 -12.5014 13.5163 -1.1332 -5.0146 88.1196 14.2451 10.6914 -0.0995 -28.05 -0.2431 -0.00160068 -0.00239207 0.000740045 0.0679 -23.3996 -0.1402 -8.4365e-005 7.00714e-005 -9.52055e-007 0.7932 -9.069 2.5189 9.93923e-017 -1.98785e-016 -1.59028e-015 -0.8272 -3.3923 0.5977 9.93923e-017 -5.96354e-016 -1.59028e-015 -0.5649 -2.3158 0.4082 -9.93923e-017 -5.96354e-016 -1.59028e-015 0.9159 -9.2044 0.2193 9.93923e-017 -1.98785e-016 -1.59028e-015 0.0117 -4.1944 -0.0248 -0.0128176 0.00232552 8.52707e-005 0.0071 -2.3249 -0.0142 9.93923e-017 5.96354e-016 -0 0.6113 -8.7231 -2.0637 9.93923e-017 -1.98785e-016 -1.59028e-015 -0.1927 -3.8059 -0.2383 -0.0160551 0.00299681 0.000857156 -0.1091 -2.1688 -0.1362 -2.48481e-016 0 3.18055e-015 -0.6151 -8.0947 -3.5641 9.93923e-017 -1.98785e-016 -1.59028e-015 -0.4882 -2.341 -0.6462 -0.0125865 0.0031206 0.00282719 -0.3575 -1.7167 -0.4742 0 1.98785e-016 -0 -1.42 -1.8761 1.4223 9.93923e-017 -1.98785e-016 -1.59028e-015 -1.1471 -3.4929 2.6334 9.93923e-017 -5.96354e-016 -1.59028e-015 -0.823 -2.3 1.6571 -9.93923e-017 -5.96354e-016 -1.59028e-015 -2.2603 21.606 7.4023 -0.865644 0.16582 7.03859 -13.5187 -1.1334 -5.0155 -88.0329 10.2057 -10.5567 0.0994 -28.0499 -0.2431 0.0015593 -0.00248883 -0.000788628 -0.0679 -23.3996 -0.1402 7.87605e-005 4.10553e-005 1.24965e-005 -0.7932 -9.0691 2.5189 -3.97569e-016 -7.95139e-016 3.18055e-015 0.8272 -3.3923 0.5977 -1.98785e-016 -3.97569e-016 3.18055e-015 0.565 -2.3158 0.4082 -1.98785e-016 0 3.18055e-015 -0.916 -9.2044 0.2193 -3.97569e-016 -7.95139e-016 3.18055e-015 -0.0117 -4.1944 -0.0248 0.0129473 0.00231697 -8.70038e-005 -0.0071 -2.3249 -0.0142 9.93923e-017 -7.95139e-016 1.59028e-015 -0.6113 -8.7231 -2.0637 -3.97569e-016 -7.95139e-016 3.18055e-015 0.1927 -3.8059 -0.2383 0.0163314 0.00303369 -0.000872333 0.1091 -2.1688 -0.1362 3.97569e-016 7.95139e-016 -3.18055e-015 0.6151 -8.0947 -3.564 -3.97569e-016 -7.95139e-016 3.18055e-015 0.4882 -2.341 -0.6462 0.0145763 0.00367772 -0.00326275 0.3574 -1.7166 -0.4742 9.93923e-017 -3.97569e-016 -0 1.4199 -1.8761 1.4221 -3.97569e-016 -7.95139e-016 3.18055e-015 1.1472 -3.4929 2.6336 -1.98785e-016 -3.97569e-016 3.18055e-015 0.8229 -2.3 1.6571 -1.98785e-016 0 3.18055e-015 -9.412 3.9771 -0.7758 3.42482 1.32465 -0.0626183 -0.7531 -40.938 0 0.000117508 0.717283 0.000978199 0 -40.1986 0 -3.4257 -2.04197 -0.0604716 8.88178e-016 -4.4182 9.239 6.47761e-025 0 -0 9.4119 3.9773 -0.7758 -3.42483 1.34017 0.0627307 0.7532 -40.9383 -2.22045e-016 -0.000193936 0.682302 -0.0013703 -8.88179e-016 -40.1986 0 3.42574 -2.02253 0.0595886 -8.88178e-016 -4.4182 9.239 -8.45714e-024 0 -7.40531e-025 
-0.0758602 36.9834 8.20085 -0 -32.9638 -0 0 8.7983 -4.7612 0 1.48655e-005 -0 0 8.0291 0.4195 -0 -4.56742e-006 -0 0 9.9351 -2.2114 0 4.56742e-006 -0 0 22.3885 -0.4656 -0.0369503 6.29519 1.23514e-010 -0.0001 12.643 3.4389 0.00134935 -0.366018 -0.0183221 2.2603 21.606 7.4023 -0.0369496 1.32995e-006 -12.5014 13.5163 -1.1332 -5.0146 93.318 13.4096 31.7817 -0.0995 -28.05 -0.2431 -0.665235 -15.1887 8.11172 0.0679 -23.3996 -0.1402 5.46515 -0.981618 0.216332 0.7932 -9.069 2.5189 8.20405e-006 -2.77649e-005 -9.60278e-006 -0.8272 -3.3923 0.5977 -8.62022e-006 1.74204e-005 -4.21512e-006 -0.5649 -2.3158 0.4082 3.97569e-016 9.24349e-015 -0 0.9159 -9.2044 0.2193 8.20405e-006 -2.77649e-005 -9.60278e-006 0.0117 -4.1944 -0.0248 -0.0127729 0.00233448 8.57165e-005 0.0071 -2.3249 -0.0142 -3.03456e-032 2.73329e-016 6.36111e-015 0.6113 -8.7231 -2.0637 8.20405e-006 -2.77649e-005 -9.60278e-006 -0.1927 -3.8059 -0.2383 -0.0160793 0.00301711 0.000855691 -0.1091 -2.1688 -0.1362 -7.62221e-006 1.31187e-005 7.77142e-007 -0.6151 -8.0947 -3.5641 8.20405e-006 -2.77649e-005 -9.60278e-006 -0.4882 -2.341 -0.6462 -0.0126384 0.00317036 0.00283647 -0.3575 -1.7167 -0.4742 4.96962e-016 2.43511e-015 6.36111e-015 -1.42 -1.8761 1.4223 8.20405e-006 -2.77649e-005 -9.60278e-006 -1.1471 -3.4929 2.6334 -8.62022e-006 1.74204e-005 -4.21512e-006 -0.823 -2.3 1.6571 3.97569e-016 9.24349e-015 -0 -2.2603 21.606 7.4023 -0.918323 -0.00409653 18.1479 -13.5187 -1.1334 -5.0155 -104.663 14.5747 -30.9593 0.0994 -28.0499 -0.2431 15.1222 -47.3806 1.31266 -0.0679 -23.3996 -0.1402 8.78365e-005 -0.000312511 4.95055e-005 -0.7932 -9.0691 2.5189 3.18055e-015 3.18055e-015 -0 0.8272 -3.3923 0.5977 -3.18055e-015 1.11319e-014 -1.59028e-015 0.565 -2.3158 0.4082 6.36111e-015 8.74653e-015 -0 -0.916 -9.2044 0.2193 3.18055e-015 3.18055e-015 -0 -0.0117 -4.1944 -0.0248 0.0129877 0.00229505 -9.14813e-005 -0.0071 -2.3249 -0.0142 3.18055e-015 -1.59028e-015 -0 -0.6113 -8.7231 -2.0637 3.18055e-015 3.18055e-015 -0 0.1927 -3.8059 -0.2383 0.0163524 0.00300455 -0.00087331 0.1091 -2.1688 -0.1362 9.54166e-015 1.03368e-014 6.36111e-015 0.6151 -8.0947 -3.564 3.18055e-015 3.18055e-015 -0 0.4882 -2.341 -0.6462 0.01467 0.00368523 -0.0032765 0.3574 -1.7166 -0.4742 3.0832e-006 1.13128e-005 -2.06556e-006 1.4199 -1.8761 1.4221 3.18055e-015 3.18055e-015 -0 1.1472 -3.4929 2.6336 -3.18055e-015 1.11319e-014 -1.59028e-015 0.8229 -2.3 1.6571 6.36111e-015 8.74653e-015 -0 -9.412 3.9771 -0.7758 4.42337 -0.195763 0.0921533 -0.7531 -40.938 -3.55271e-015 0.000119188 1.39606 -0.0761234 1.77636e-015 -40.1986 1.06581e-014 -0.516952 8.30628 -1.50736 0 -4.4182 9.239 -6.95746e-016 9.54166e-015 -0 9.4119 3.9773 -0.7758 -7.57329 1.59314 0.0819408 0.7532 -40.9383 -7.10543e-015 0.000145261 1.2284 0.156081 0 -40.1986 -7.10543e-015 3.49961 4.94578 -0.05461 0 -4.4182 9.239 -1.98785e-016 -3.09575e-006 -3.97569e-016 
-0.141148 10.3933 10.2585 -0 -65.9276 -0 0 8.7983 -4.7612 -0 -3.18055e-015 -0 0 8.0291 0.4195 0 0 -0 0 9.9351 -2.2114 0 0 -0 0 22.3885 -0.4656 -0.0739005 12.5904 -1.62906e-008 -0.0001 12.643 3.4389 0.00246456 -0.73203 -0.0366465 2.2603 21.606 7.4023 -0.0739027 -5.91452e-006 -12.5014 13.5163 -1.1332 -5.0146 98.8336 12.3266 52.799 -0.0995 -28.05 -0.2431 -1.87788 -30.3439 15.1584 0.0679 -23.3996 -0.1402 10.9364 -1.93815 0.525163 0.7932 -9.069 2.5189 -7.06225e-031 1.27222e-014 3.18055e-015 -0.8272 -3.3923 0.5977 3.18055e-015 9.54166e-015 -0 -0.5649 -2.3158 0.4082 6.36111e-015 9.54166e-015 -6.36111e-015 0.9159 -9.2044 0.2193 -7.06225e-031 1.27222e-014 3.18055e-015 0.0117 -4.1944 -0.0248 -0.0128169 0.00233599 7.62307e-005 0.0071 -2.3249 -0.0142 0 0 -3.18055e-015 0.6113 -8.7231 -2.0637 -7.06225e-031 1.27222e-014 3.18055e-015 -0.1927 -3.8059 -0.2383 -0.0160223 0.00299604 0.000850242 -0.1091 -2.1688 -0.1362 3.18055e-015 -9.54166e-015 -0 -0.6151 -8.0947 -3.5641 -7.06225e-031 1.27222e-014 3.18055e-015 -0.4882 -2.341 -0.6462 -0.012637 0.00312875 0.00283341 -0.3575 -1.7167 -0.4742 -6.36111e-015 0 6.36111e-015 -1.42 -1.8761 1.4223 -7.06225e-031 1.27222e-014 3.18055e-015 -1.1471 -3.4929 2.6334 3.18055e-015 9.54166e-015 -0 -0.823 -2.3 1.6571 6.36111e-015 9.54166e-015 -6.36111e-015 -2.2603 21.606 7.4023 -0.937961 -0.173877 29.2573 -13.5187 -1.1334 -5.0155 -121.851 17.9748 -51.5105 0.0994 -28.0499 -0.2431 126.48 -75.918 100.596 -0.0679 -23.3996 -0.1402 8.82159e-005 -1.68778e-005 0.000246413 -0.7932 -9.0691 2.5189 7.63645e-006 1.96622e-005 6.19333e-006 0.8272 -3.3923 0.5977 4.97512e-007 -1.27908e-005 -7.9864e-006 0.565 -2.3158 0.4082 6.36111e-015 3.97569e-015 7.95139e-016 -0.916 -9.2044 0.2193 7.63645e-006 1.96622e-005 6.19333e-006 -0.0117 -4.1944 -0.0248 0.012945 0.00232702 -9.01797e-005 -0.0071 -2.3249 -0.0142 -1.13934e-030 -1.17283e-014 -5.56597e-015 -0.6113 -8.7231 -2.0637 7.63645e-006 1.96622e-005 6.19333e-006 0.1927 -3.8059 -0.2383 0.0163055 0.00305384 -0.000874909 0.1091 -2.1688 -0.1362 -3.50107e-006 -1.28357e-005 -8.3835e-007 0.6151 -8.0947 -3.564 7.63645e-006 1.96622e-005 6.19333e-006 0.4882 -2.341 -0.6462 0.0145152 0.00363768 -0.00326217 0.3574 -1.7166 -0.4742 3.18055e-015 1.98785e-016 7.95139e-016 1.4199 -1.8761 1.4221 7.63645e-006 1.96622e-005 6.19333e-006 1.1472 -3.4929 2.6336 4.97512e-007 -1.27908e-005 -7.9864e-006 0.8229 -2.3 1.6571 6.36111e-015 3.97569e-015 7.95139e-016 -9.412 3.9771 -0.7758 5.44908 -2.84809 0.272299 -0.7531 -40.938 -1.77636e-015 0.000113549 4.35763 -0.136642 1.77636e-015 -40.1986 3.55271e-015 2.93627 17.5092 -2.95042 -1.77636e-015 -4.4182 9.239 -8.87643e-007 -2.35175e-006 3.28498e-007 9.4119 3.9773 -0.7758 -11.7342 1.29057 0.0963366 0.7532 -40.9383 0 -0.000739219 2.8679 0.334918 0 -40.1986 -3.55271e-015 3.60819 11.3759 -0.151411 -8.88179e-016 -4.4182 9.239 5.15087e-007 3.85091e-006 -7.46416e-007 
-0.190524 -7.98637 9.72609 -0 -89.0022 -0 0 8.7983 -4.7612 -0 -1.98785e-016 -0 0 8.0291 0.4195 -0 -1.98785e-016 -0 0 9.9351 -2.2114 -0 -1.98785e-016 -0 0 22.3885 -0.4656 -0.099664 16.997 -8.15342e-009 -0.0001 12.643 3.4389 -2.30699e-008 -1.00194 -3.1539e-008 2.2603 21.606 7.4023 -0.0996625 1.03443e-005 -12.5014 13.5163 -1.1332 -5.0146 102.835 11.489 67.4904 -0.0995 -28.05 -0.2431 -3.48487 -40.8472 19.1201 0.0679 -23.3996 -0.1402 14.7711 -2.58855 0.795321 0.7932 -9.069 2.5189 1.59028e-015 3.18055e-015 9.93923e-016 -0.8272 -3.3923 0.5977 7.95139e-016 0 1.19271e-015 -0.5649 -2.3158 0.4082 2.38542e-015 3.18055e-015 3.18055e-015 0.9159 -9.2044 0.2193 1.59028e-015 3.18055e-015 9.93923e-016 0.0117 -4.1944 -0.0248 -0.0128252 0.00232266 8.70099e-005 0.0071 -2.3249 -0.0142 7.95139e-016 1.27222e-014 -1.59028e-015 0.6113 -8.7231 -2.0637 1.59028e-015 3.18055e-015 9.93923e-016 -0.1927 -3.8059 -0.2383 -0.0160417 0.00298998 0.000856731 -0.1091 -2.1688 -0.1362 1.19271e-015 6.36111e-015 -1.19271e-015 -0.6151 -8.0947 -3.5641 1.59028e-015 3.18055e-015 9.93923e-016 -0.4882 -2.341 -0.6462 -0.0125603 0.00311396 0.00281931 -0.3575 -1.7167 -0.4742 -7.95139e-016 -9.54166e-015 -1.98785e-016 -1.42 -1.8761 1.4223 1.59028e-015 3.18055e-015 9.93923e-016 -1.1471 -3.4929 2.6334 7.95139e-016 0 1.19271e-015 -0.823 -2.3 1.6571 2.38542e-015 3.18055e-015 3.18055e-015 -2.2603 21.606 7.4023 -0.932259 -0.289185 37.034 -13.5187 -1.1334 -5.0155 -134.223 19.8684 -66.0179 0.0994 -28.0499 -0.2431 172.313 -46.9742 138.008 -0.0679 -23.3996 -0.1402 4.56302e-005 -0.000128583 0.000294958 -0.7932 -9.0691 2.5189 -3.97569e-016 1.19271e-015 -3.18055e-015 0.8272 -3.3923 0.5977 4.41391e-032 7.95139e-016 -3.18055e-015 0.565 -2.3158 0.4082 -1.19271e-015 3.97569e-016 -3.18055e-015 -0.916 -9.2044 0.2193 -3.97569e-016 1.19271e-015 -3.18055e-015 -0.0117 -4.1944 -0.0248 0.0129695 0.00231896 -8.831e-005 -0.0071 -2.3249 -0.0142 1.19271e-015 -1.19271e-015 -0 -0.6113 -8.7231 -2.0637 -3.97569e-016 1.19271e-015 -3.18055e-015 0.1927 -3.8059 -0.2383 0.0163555 0.00304162 -0.000876093 0.1091 -2.1688 -0.1362 -3.97569e-016 -7.95139e-016 1.27222e-014 0.6151 -8.0947 -3.564 -3.97569e-016 1.19271e-015 -3.18055e-015 0.4882 -2.341 -0.6462 0.0145812 0.00367737 -0.0032536 0.3574 -1.7166 -0.4742 3.97569e-016 1.59028e-015 3.18055e-015 1.4199 -1.8761 1.4221 -3.97569e-016 1.19271e-015 -3.18055e-015 1.1472 -3.4929 2.6336 4.41391e-032 7.95139e-016 -3.18055e-015 0.8229 -2.3 1.6571 -1.19271e-015 3.97569e-016 -3.18055e-015 -9.412 3.9771 -0.7758 6.18783 -5.46641 0.418531 -0.7531 -40.938 0 9.67675e-005 7.82196 -0.112509 0 -40.1986 8.88178e-016 5.63139 23.3626 -3.9372 -3.55272e-015 -4.4182 9.239 1.87666e-006 -1.70849e-005 1.35928e-008 9.4119 3.9773 -0.7758 -14.6545 0.581712 0.100537 0.7532 -40.9383 -1.77636e-015 0.000985954 4.89614 0.447261 -1.77636e-015 -40.1986 -2.66454e-015 3.69725 15.4951 -0.205546 -1.77636e-015 -4.4182 9.239 1.23447e-006 -1.78263e-007 1.42e-006 
